<?xml version="1.0" encoding="utf-8"?>
<!-- Generator: Adobe Illustrator 24.1.3, SVG Export Plug-In . SVG Version: 6.00 Build 0)  -->
<svg version="1.1" id="Слой_1" xmlns="http://www.w3.org/2000/svg" xmlns:xlink="http://www.w3.org/1999/xlink" x="0px" y="0px"
	 viewBox="0 0 609.5 157.2" style="enable-background:new 0 0 609.5 157.2;" xml:space="preserve">
<style type="text/css">
	.st0{fill:#FFFFFF;}
	.st1{fill:none;stroke:#FFFFFF;stroke-width:4.0001;stroke-miterlimit:10.0003;}
</style>
<path class="st0" d="M252.8,119.8h-38.9l-0.3-1.2l16.2-4.6c1.4-6.3,1.3-6-4.9-7.5c-4.5-1.3-8.8-2.9-13-4.9c-2.2-1-5.1-2.5-3.1-5.5
	c0.6-0.9,4.2-0.5,5.8,0.3c22.4,12.2,49.4,0.5,55.2-24.1c3.8-16.9-4.5-34.2-20-41.8c-0.9-0.5-2.1-0.6-2.7-1.3c-1-1.3-1.9-2.6-2.8-4
	c1.7-0.5,3.7-1.8,5-1.3c9.3,3.5,17,10.2,21.8,18.9c11.7,20.7,4.4,47-16.4,58.7c-4.4,2.5-9.2,4.2-14.2,5c-2.5,0.4-4.3,0.8-4.3,4.1
	c-0.1,3.6,1.8,3.8,4.5,4.3c4.2,0.8,8.2,2.1,12.3,3.3L252.8,119.8z"/>
<path class="st0" d="M277.6,80h6.2v34.6h10.1l-0.5,5.4h-15.8L277.6,80L277.6,80z"/>
<path class="st0" d="M302.6,80v40h-6.2V80H302.6z"/>
<path class="st0" d="M308,120V80h7.2c1.6,5.7,6.4,25.4,6.8,27.6h0.1c-0.3-4.9-0.3-10.6-0.3-17.2V80h5.7v40h-6.9
	c-1.3-4.8-6.6-26.8-7-28.5h-0.1c0.3,4.9,0.3,10.3,0.3,17.5v11L308,120L308,120z"/>
<path class="st0" d="M351,120h-4.8c-0.2-1-0.3-2-0.3-3c-1.1,2.7-3.4,3.6-6,3.6c-5.9,0-7.8-4.3-7.8-11.1V90.8
	c0-6.5,2.5-11.4,9.5-11.4c8.4,0,9.3,6.2,9.3,10.5v1.3h-6.2v-1.6c0-2.1-0.3-4.6-3.1-4.6c-2.3,0-3.2,1.6-3.2,4.8v20.5
	c0,3.2,0.9,4.9,3.2,4.9c2.7,0,3.3-2.3,3.3-6.4v-5.9h-3.5v-5.3h9.7L351,120z"/>
<path class="st0" d="M359.9,120l-7-40.1h6.7l2.1,16.3c0.7,5.4,1.6,11.1,1.9,15.7h0.1c0.3-4.4,1.3-10.1,1.9-15.5l2-16.4h6.6
	l-6.8,40.1L359.9,120L359.9,120z"/>
<path class="st0" d="M381.2,109.4l-1.4,10.7h-6.3l6.5-40h8.7l6.7,40h-6.5l-1.6-10.7C387.3,109.4,381.2,109.4,381.2,109.4z
	 M386.6,103.7c-0.9-6.8-1.8-13.3-2.3-17.8h-0.2c-0.2,3.3-1.4,11.9-2.2,17.8C381.9,103.7,386.6,103.7,386.6,103.7z"/>
<path class="st0" d="M228.6,39.3c1.1-0.9,2.3-1.9,3.4-2.8c0.8-0.6,1.6-1.7,2.4-1.6c4.5,0.4,8.9-2.1,13.5,0.5
	c7.4,4.1,12.8,9.8,15.3,16.3c-1.3,2.6-2,4.1-2.6,5.3l-5.6-7c-2,2.5-3,4.8-4.4,5.1C249,55.5,247,54,244,53l7.1,6
	c-0.7,1-1.9,2.6-2.9,4.2c-0.8,1.2-2.3,2.7-2.1,3.7c1.3,5.3-2.9,8-5.1,11.5c-2.5,3.7-5.8,3-7.2-1.2c-1.5-4.2-2.5-8.6-3.1-13
	c-0.5-3.8-2.4-4.2-5.4-3.7s-6,0.5-6.4-2.8c-0.2-2.8,0.4-5.6,1.8-8c2.2-3.8,5.2-7.2,7.9-10.8L228.6,39.3z M226.8,44.3
	c5.4,1.3,10,4.7,16.7,1.6C237.4,44.9,232.9,39.9,226.8,44.3L226.8,44.3z"/>
<path class="st0" d="M211.4,82.5c-6-7.4-7.6-15.4-6.5-24.1c2,2.5,4.1,5,6,7.7c0.4,0.7,0.5,1.5,0.5,2.3
	C211.4,72.9,211.4,77.5,211.4,82.5z"/>
<path class="st0" d="M246.1,93l-15.6,1.5c-0.1-0.7-0.1-1.4-0.2-2l15.6-1.1L246.1,93z"/>
<path class="st0" d="M213.4,46c0.8,0.5,2.1,1,2.1,1.5c0,3.2-0.6,6.3-1.9,9.3c-0.5-2-0.8-4.1-1-6.2C212.7,49,213,47.4,213.4,46
	L213.4,46z"/>
<ellipse class="st1" cx="234.4" cy="64.3" rx="31.5" ry="31.5"/>
<path class="st0" d="M205.6,79.9c0.4,0.4,0.9,0.7,1.4,0.9c0.5,0.1,0.9,0,1.3-0.3c0.4-0.3,0.6-0.7,0.6-1.2l0.1-1.8l-2.8,0.8l1,2.4
	c0.4,0.7,1.4,0.9,2.1,0.5c0.2-0.1,0.4-0.3,0.5-0.5c0.5-0.9,0.5-2,0-2.9c-0.4-0.6-1-0.9-1.7-0.7c-0.6,0.2-1.1,0.8-1.1,1.5
	c0,0.4,0.1,0.7,0.1,1.1c0,0.2,0,0.3,0,0.5c0,0.1,0,0.2,0,0.3c0-0.2,0-0.1,0,0c-0.2,0.8,0.3,1.6,1,1.8c0.8,0.2,1.6-0.2,1.8-1
	c0.1-0.4,0.2-0.9,0.3-1.3l-2.7,0.4c0,0.1,0.2,0.4,0.1,0.1c0.1,0.1,0.1,0.3,0.1,0.4s0,0.1,0,0.2c0-0.2,0-0.2,0-0.1s0,0.3,0,0.5
	c0,0.7,0.5,1.3,1.1,1.5c0.7,0.1,1.3-0.1,1.7-0.7c0.3-0.5,0.5-1,0.5-1.6h-3c0,1.1,0.2,2.3,0.5,3.3c0.2,0.6,0.8,1.1,1.5,1.1
	s1.3-0.5,1.4-1.1c0.2-0.9,0.1-1.8-0.2-2.7c-0.1-0.8-0.9-1.4-1.7-1.3s-1.4,0.9-1.3,1.7c-0.1,1.6,0.4,3.2,1.5,4.4
	c0.6,0.6,1.5,0.6,2.1,0s0.6-1.5,0-2.1c-0.1-0.1-0.1-0.1,0,0c0-0.1-0.1-0.1-0.1-0.2c-0.1-0.1-0.1-0.2-0.2-0.3
	c-0.1-0.1-0.1-0.2-0.2-0.3c0.1,0.4,0-0.1,0-0.1s-0.1-0.3-0.1-0.4v-0.1c0-0.2,0-0.1,0,0c-0.1-0.3-0.1-0.6,0-0.8l-2.9,0.4l0.1,0.4
	c0,0.1,0,0.2,0,0.3c0-0.2,0-0.2,0-0.1s0,0.3,0,0.4s-0.1,0.5,0,0.2h2.9c-0.1-0.5-0.2-0.9-0.3-1.4c0-0.1-0.1-0.4,0-0.1v-0.3
	c0-0.2,0-0.5,0-0.7c0-0.8-0.7-1.5-1.5-1.5s-1.5,0.7-1.5,1.5c0,0.2,0,0,0-0.1s0-0.1,0,0s-0.1,0.1-0.1,0.1l2.8,0.8
	c0-0.9-0.2-1.8-0.6-2.6c-0.4-0.7-1.4-0.9-2.1-0.5c-0.3,0.2-0.5,0.5-0.6,0.8c-0.1,0.4-0.2,0.9-0.3,1.3l2.9,0.8
	c0.2-0.9,0.2-1.8,0.1-2.7l-2.8,0.8c-0.1-0.2-0.1-0.2,0,0c0-0.2,0-0.2,0,0s0,0.1,0-0.1c0,0.2,0,0.1,0,0h2.6l-1-2.3
	c-0.3-0.6-1-0.9-1.7-0.7c-0.6,0.2-1.1,0.8-1.1,1.5l-0.1,1.8l1.9-1.5c0.4,0.2,0,0,0,0l0.1,0.1c-0.1,0-0.1-0.1-0.2-0.2
	c-0.6-0.6-1.5-0.6-2.1,0S205.1,79.4,205.6,79.9L205.6,79.9z"/>
<path class="st0" d="M231.4,92.5c-0.7-0.1-1.3-0.1-2-0.1c-0.8-0.1-1.6,0.5-1.7,1.3s0.5,1.6,1.3,1.7c1,0.3,2,0.4,3,0.2
	c0.7-0.2,1.2-0.9,1.1-1.6c-0.1-0.7-0.7-1.3-1.5-1.3c-3.4-0.3-6.8-0.5-10-1.6c-0.8-0.2-1.6,0.2-1.8,1s0.2,1.6,1,1.9
	c3.4,1.3,7.2,1.4,10.8,1.7l-0.4-2.9c0.1,0-0.3,0-0.3,0c-0.1,0-0.3,0-0.4,0c-0.2,0-0.5-0.1-0.7-0.2l-0.4,2.9c0.7,0,1.3,0,2,0.1
	c0.8,0,1.5-0.7,1.5-1.5C232.8,93.2,232.1,92.6,231.4,92.5L231.4,92.5z"/>
<path class="st0" d="M237,34c-2.4,0.1-4.7,0.9-6.6,2.5c-1.8,1.4-3.5,2.9-5,4.6c-3,3.4-5,7.5-5.7,12c-0.2,0.8,0.2,1.6,1,1.8
	c0.8,0.2,1.6-0.3,1.8-1c0.6-3.9,2.3-7.5,4.8-10.4c1.2-1.5,2.6-2.9,4.2-4.1c1.6-1.3,3.4-2.4,5.4-2.4S238.9,34,237,34z"/>
<path class="st0" d="M260.4,56.3L260.4,56.3c0,0.2,0,0.3-0.1,0.3c-0.1,0.1-0.1,0.3,0,0.4s0.3,0.2,0.4,0.2c0.2,0,0.4-0.1,0.5-0.3
	c0.1-0.2,0.2-0.4,0.3-0.6l0.3-0.7l0.7-1.5c0-0.1,0-0.2-0.1-0.2s-0.1,0-0.2,0l-0.6,0.8c-0.1,0.2,0.1,0.3,0.3,0.2l0.6-0.8l-0.3-0.1
	l-1.3,2.6c-0.1,0.1-0.2,0.4-0.3,0.4s-0.2-0.1-0.2-0.2s0.2-0.5-0.1-0.7S260.2,56.2,260.4,56.3L260.4,56.3z"/>
<path class="st0" d="M260.7,56.8c-0.5-0.8-0.9-1.6-1.3-2.5c-0.1-0.2-0.4-0.1-0.3,0.1c0.4,0.9,0.8,1.8,1.3,2.6
	C260.6,57.1,260.8,56.9,260.7,56.8L260.7,56.8z"/>
<path class="st0" d="M260.5,56.8c-0.3-0.2-0.4-0.4-0.5-0.8s-0.2-0.7-0.4-1c-0.1-0.1-0.3-0.1-0.3,0.1c0.2,0.5,0.4,1.1,0.6,1.6
	c0.1,0.2,0.2,0.5,0.5,0.5s0.5-0.1,0.7-0.2s0-0.4-0.2-0.3s-0.4,0.3-0.5,0.2c-0.1,0-0.1-0.1-0.2-0.2s-0.1-0.2-0.2-0.3
	c-0.2-0.4-0.4-0.9-0.5-1.4l-0.3,0.1c0.4,0.6,0.4,1.5,1.1,1.9C260.4,57,260.5,57,260.5,56.8C260.5,56.8,260.6,56.8,260.5,56.8
	L260.5,56.8z"/>
<path class="st0" d="M260.7,55.7c-0.2,0.3-0.3,0.7-0.4,1.1c0,0.1,0.1,0.1,0.2,0.1h0.1l0.5-0.6l-0.2-0.2l-0.3,0.7
	c0,0.1,0,0.2,0.1,0.2s0.1,0,0.2,0c0.2-0.1,0.3-0.3,0.4-0.5l-0.3-0.1c0,0.1-0.1,0.3-0.2,0.4l0.3,0.1c0.3-0.6,0.5-1.3,0.5-2.1
	c0-0.1-0.2-0.2-0.3-0.1c-0.2,0.3-0.3,0.7-0.4,1c0,0.1,0,0.2,0.1,0.2h0.1c0.3-0.3,0.6-0.6,0.9-1c0.3-0.3,0.5-0.7,0.5-1.1
	c0-0.2-0.3-0.2-0.3,0c-0.1,0.4-0.2,0.8-0.4,1.1l0.3,0.1c0-0.4,0.1-0.7,0.3-1c0.1-0.2-0.2-0.3-0.3-0.1l-0.6,0.8l0.3,0.1
	c0.1-0.2,0.3-0.4,0.4-0.6h-0.3l0,0v0.1l-0.1,0.2l-0.2,0.3l-0.4,0.7c-0.1,0.1,0.1,0.3,0.2,0.2c0.2-0.2,0.3-0.4,0.4-0.6
	s-0.2-0.3-0.3-0.1l-0.3,0.7l0.3,0.1c0-0.2,0.1-0.3,0.2-0.5l-0.3-0.1c-0.1,0.3-0.2,0.5-0.4,0.8l0.3,0.1l0.2-0.4l-0.3-0.1
	c0,0.2-0.1,0.4-0.2,0.6c0,0.1,0,0.2,0,0.2c0.1,0,0.2,0,0.2-0.1c0.1-0.2,0.3-0.4,0.4-0.7c0-0.1,0-0.2-0.1-0.2s-0.2,0-0.2,0.1
	c-0.2,0.3-0.4,0.7-0.5,1c-0.1,0.1,0.1,0.3,0.2,0.2c0.3-0.4,0.6-0.8,0.7-1.3c0.1-0.2-0.2-0.3-0.3-0.1c-0.1,0.4-0.4,0.8-0.6,1.2
	l0.2,0.2c0.2-0.3,0.3-0.7,0.5-1l-0.3-0.1c-0.1,0.2-0.2,0.5-0.4,0.7l0.3,0.2c0.1-0.2,0.2-0.4,0.2-0.7c0-0.2-0.2-0.3-0.3-0.1l0.1,0.2
	c-0.1,0.2,0.2,0.3,0.3,0.1c0.2-0.3,0.3-0.5,0.4-0.8c0-0.1-0.1-0.2-0.1-0.2c-0.1,0-0.1,0-0.1,0.1c-0.1,0.2-0.2,0.4-0.2,0.5
	c0,0.2,0.2,0.3,0.3,0.1L262,55l-0.3-0.1c-0.1,0.2-0.2,0.4-0.3,0.5l0.2,0.2l0.5-0.9c0.1-0.1,0.2-0.3,0.2-0.4s0.1-0.2,0-0.3
	c0-0.1-0.1-0.1-0.2-0.1c0,0,0,0-0.1,0.1c-0.1,0.2-0.3,0.4-0.4,0.6s0.2,0.3,0.3,0.1l0.6-0.8l-0.3-0.1c-0.2,0.3-0.3,0.7-0.4,1.1
	c0,0.2,0.2,0.2,0.3,0.1c0.2-0.4,0.4-0.8,0.5-1.2h-0.3c0,0.4-0.2,0.7-0.5,1c-0.2,0.3-0.5,0.6-0.8,0.9l0.3,0.1
	c0.1-0.3,0.2-0.6,0.3-0.9l-0.3-0.1c0,0.7-0.2,1.4-0.5,2c0,0.1,0.2,0.3,0.3,0.1c0.1-0.2,0.2-0.3,0.3-0.5c0-0.1-0.2-0.3-0.3-0.1
	c-0.1,0.2-0.2,0.3-0.3,0.4l0.2,0.2l0.3-0.6c0.1-0.1-0.1-0.3-0.2-0.2l-0.5,0.6l0.3,0.1c0-0.4,0.1-0.7,0.3-1c0-0.1,0-0.2,0-0.2
	C260.9,55.7,260.8,55.7,260.7,55.7L260.7,55.7z"/>
<path class="st0" d="M245.4,53c-0.3-0.2-0.6-0.2-0.9,0c-0.1,0.1-0.2,0.2-0.3,0.4c0,0.1,0,0.2,0,0.2c0,0.1,0,0.2,0,0.2h0.3
	c-0.1-0.5-0.1-1,0-1.5c0-0.1-0.2-0.2-0.3-0.1c-0.1,0.2-0.1,0.4,0,0.6l0.2-0.2l-0.4-0.1c-0.1,0-0.2-0.1-0.2,0s0,0.1,0,0.2
	s0.2,0.2,0.3,0.2l0.4,0.2c0.1,0,0.2,0,0.2-0.1s0-0.2-0.1-0.2l-0.3-0.2c-0.1,0-0.2,0-0.2,0.1s0,0.2,0.1,0.2l0.3,0.2l0.2-0.3l-0.3-0.1
	l-0.1-0.1h-0.2l0,0v0.1l0,0H244l0.5,0.2c0.1,0,0.2-0.1,0.2-0.2s0-0.2,0-0.3l-0.3-0.1c-0.1,0.5-0.1,1,0,1.5c0,0.1,0,0.1,0.1,0.1
	s0.1,0,0.2-0.1c0-0.1,0-0.3,0-0.4s0.1-0.2,0.1-0.3C245,53,245.2,53,245.4,53c0.1,0.1,0.2,0.1,0.2,0.1l0,0
	C245.6,53.1,245.6,53,245.4,53L245.4,53z"/>
<path class="st0" d="M244.8,52.7c-0.3,0.2-0.5,0.5-0.4,0.9c0,0.2,0.1,0.4,0.1,0.6s0.1,0.4,0.3,0.5c0.1,0.1,0.3-0.1,0.2-0.2
	s-0.2-0.2-0.2-0.4c-0.1-0.2-0.1-0.3-0.1-0.5c0-0.3,0.1-0.5,0.3-0.7C245.2,52.8,245,52.6,244.8,52.7L244.8,52.7z"/>
<path class="st0" d="M249.4,57.8c0.3,0.2,0.6,0.4,0.9,0.6c0.3,0.1,0.8,0.3,0.6,0.7c-0.3,0.6-1.1,0.6-1.3,1.3c0,0.1,0,0.2,0.1,0.2
	s0.1,0,0.2,0c0.4-0.3,0.7-0.7,1.1-1.1c0.1-0.1,0.2-0.2,0.2-0.4s-0.3-0.4-0.4-0.6l-0.2,0.2c0.1,0.1,0.2,0.2,0.3,0.4
	c0,0.1,0.1,0.1,0.2,0.1c0,0,0.1,0,0.1-0.1c0.1-0.2,0.1-0.5,0-0.7c0-0.1-0.1-0.1-0.2-0.1l-0.1,0.1V59c0,0.1,0.1,0.1,0.2,0.1h0.1
	c0.3-0.3,0.2-0.7-0.1-1c-0.2-0.1-0.4-0.3-0.6-0.4l-0.8-0.4l-3.4-1.6c-0.2-0.1-0.3,0.2-0.2,0.3l2.7,1.3l1.3,0.6
	c0.3,0.1,1.1,0.5,0.7,0.9l0.3,0.1v-0.6l-0.3,0.1c0.1,0.1,0.1,0.3,0,0.4h0.3c-0.1-0.2-0.2-0.4-0.4-0.5c-0.1-0.1-0.3,0.1-0.2,0.2
	l0.2,0.2l0.2,0.2c0,0-0.3,0.4-0.4,0.5c-0.2,0.3-0.5,0.5-0.8,0.8l0.3,0.1c0.1-0.4,0.5-0.5,0.8-0.8c0.3-0.2,0.5-0.5,0.5-0.8
	s-0.3-0.6-0.5-0.6c-0.4-0.2-0.8-0.4-1.1-0.7C249.5,57.4,249.2,57.6,249.4,57.8L249.4,57.8z"/>
<path class="st0" d="M246.5,64.6c-0.3,0.3-0.5,0.7-0.6,1.2c-0.2,0.4-0.2,0.9-0.1,1.4c0,0.1,0.1,0.1,0.2,0.1c0.1,0,0.1-0.1,0.1-0.1
	c0-0.3,0-0.6,0-0.9s0.1-0.5,0.3-0.8c0.3-0.5,0.7-1,1-1.4c0.1-0.1-0.1-0.3-0.3-0.1l-0.6,0.8c-0.2,0.2-0.3,0.5-0.5,0.7
	c-0.2,0.5-0.3,1.1-0.3,1.7h0.3c-0.1-0.4,0-0.8,0.1-1.2c0.1-0.4,0.3-0.7,0.5-1c0.1-0.1-0.1-0.4-0.2-0.2L246.5,64.6z"/>
<path class="st0" d="M234.4,39.2c0.1,0,0.1-0.1,0.1-0.2c0-0.1-0.1-0.1-0.1-0.1c-0.1,0-0.1,0.1-0.1,0.2
	C234.2,39.1,234.3,39.2,234.4,39.2z"/>
<path class="st0" d="M230.7,36.7c0.1,0,0.1-0.1,0.1-0.2c0-0.1-0.1-0.1-0.1-0.1c-0.1,0-0.1,0.1-0.1,0.2
	C230.5,36.7,230.6,36.7,230.7,36.7z"/>
<path class="st0" d="M234.4,37c0.1,0,0.1-0.1,0.1-0.2c0-0.1-0.1-0.1-0.1-0.1c-0.1,0-0.1,0.1-0.1,0.2C234.2,37,234.3,37,234.4,37z"/>
<path class="st0" d="M208.7,75.8c-0.7,4.7,1.4,9.4,4,13.3c0.4,0.7,1.3,0.9,2.1,0.5c0.7-0.4,0.9-1.3,0.5-2.1
	c-1.2-1.6-2.1-3.4-2.8-5.3c-0.8-1.8-1.1-3.7-0.9-5.6c0.2-0.8-0.3-1.6-1-1.9C209.7,74.5,208.9,75,208.7,75.8L208.7,75.8z"/>
<path class="st0" d="M204.7,51c-1.3,3.3-0.3,6.8,1.1,9.8c1.5,3.3,3.3,6.4,4.2,10c0.7,3.5,1.1,7,1,10.6c0.1,3.2,0.7,6.5,3,8.9
	c1.3,1.4,3.5-0.7,2.1-2.1c-2.1-2.2-2.1-5.5-2.1-8.4c0-3.3-0.3-6.5-1.1-9.7c-0.9-3.1-2.1-6-3.6-8.8c-1.5-2.9-3-6.1-1.7-9.4
	C208.3,50.1,205.4,49.3,204.7,51L204.7,51z"/>
<path class="st0" d="M249.8,60.3l-0.4,0.5c-0.1,0.1,0.1,0.4,0.2,0.2c0.5-0.5,1.3-0.9,1.6-1.6c0.2-0.3,0.2-0.7,0-1s-0.6-0.4-0.9-0.4
	c-0.2,0-0.3,0.3-0.1,0.3s0.7,0.1,0.8,0.4s0,0.6-0.2,0.9c-0.4,0.5-0.9,0.9-1.4,1.3l0.2,0.2l0.4-0.5C250.1,60.3,249.9,60.1,249.8,60.3
	L249.8,60.3z"/>
</svg>
