<?xml version="1.0"?><svg fill="#000000" xmlns="http://www.w3.org/2000/svg"  viewBox="0 0 24 24" width="24px" height="24px">    <path d="M 5 3 C 3.9069372 3 3 3.9069372 3 5 L 3 19 C 3 20.093063 3.9069372 21 5 21 L 19 21 C 20.093063 21 21 20.093063 21 19 L 21 5 C 21 3.9069372 20.093063 3 19 3 L 5 3 z M 5 5 L 19 5 L 19 19 L 5 19 L 5 5 z M 12 6.2734375 L 10.455078 9.9238281 L 6.5 10.261719 L 9.5 12.857422 L 8.5996094 16.726562 L 12 14.675781 L 15.400391 16.726562 L 14.501953 12.851562 L 17.5 10.253906 L 13.544922 9.9160156 L 12 6.2734375 z"/></svg>